HIERARCHY
ROOT pelvis
{
	OFFSET 0.000000 0.000000 0.000000
	CHANNELS 6 Xposition Yposition Zposition Zrotation Xrotation Yrotation
	JOINT lfemur
	{
		OFFSET 11.446000 0.000000 0.000000
		CHANNELS 3 Zrotation Xrotation Yrotation
		JOINT ltibia
		{
			OFFSET 0.000000 -42.030400 0.000000
			CHANNELS 3 Zrotation Xrotation Yrotation
			JOINT lfoot
			{
				OFFSET 0.000000 -39.930200 0.000000
				CHANNELS 3 Zrotation Xrotation Yrotation
				JOINT ltoes
				{
					OFFSET 0.000000 0.000000 11.775800
					CHANNELS 3 Zrotation Xrotation Yrotation
					End Site
					{
					    OFFSET 0.000000 0.000000 5.000000
					}
				}
			}
		}
	}
	JOINT rfemur
	{
		OFFSET -11.446000 0.000000 0.000000
		CHANNELS 3 Zrotation Xrotation Yrotation
		JOINT rtibia
		{
			OFFSET 0.000000 -42.030400 0.000000
			CHANNELS 3 Zrotation Xrotation Yrotation
			JOINT rfoot
			{
				OFFSET 0.000000 -39.930200 0.000000
				CHANNELS 3 Zrotation Xrotation Yrotation
				JOINT rtoes
				{
					OFFSET 0.000000 0.000000 11.775800
					CHANNELS 3 Zrotation Xrotation Yrotation
					End Site
					{
					    OFFSET 0.000000 0.000000 5.000000
					}
				}
			}
		}
	}
	JOINT thorax
	{
		OFFSET 0.000000 11.255600 -5.000000
		CHANNELS 3 Zrotation Xrotation Yrotation
		JOINT head
		{
			OFFSET 0.000000 43.799300 0.000000
			CHANNELS 3 Zrotation Xrotation Yrotation
			End Site
			{
			    OFFSET 0.000000 5.000000 0.000000
			}
		}
		JOINT lclavicle
		{
			OFFSET 0.000000 39.863000 0.000000
			CHANNELS 3 Zrotation Xrotation Yrotation
			JOINT lhumerus
			{
				OFFSET 17.380600 4.958300 0.000000
				CHANNELS 3 Zrotation Xrotation Yrotation
				JOINT lradius
				{
					OFFSET 0.000000 -27.561300 0.000000
					CHANNELS 3 Zrotation Xrotation Yrotation
					JOINT lhand
					{
						OFFSET 0.000000 -26.933000 0.000000
						CHANNELS 3 Zrotation Xrotation Yrotation
						End Site
						{
						    OFFSET 0.000000 -5.000000 0.000000
						}
					}
				}
			}
		}
		JOINT rclavicle
		{
			OFFSET 0.000000 39.863000 0.000000
			CHANNELS 3 Zrotation Xrotation Yrotation
			JOINT rhumerus
			{
				OFFSET -17.380600 4.958300 0.000000
				CHANNELS 3 Zrotation Xrotation Yrotation
				JOINT rradius
				{
					OFFSET 0.000000 -27.561300 0.000000
					CHANNELS 3 Zrotation Xrotation Yrotation
					JOINT rhand
					{
						OFFSET 0.000000 -26.933000 0.000000
						CHANNELS 3 Zrotation Xrotation Yrotation
						End Site
						{
						    OFFSET 0.000000 -5.000000 0.000000
						}
					}
				}
			}
		}
	}
}
MOTION
Frames:	12
Frame Time:	0.0333333
-212.158 88.4866 -68.831 -0.00180053 0.456639 85.8587 -3.61314 -1.93042 0.0833891 1.49348 10.9986 15.5894 4.46778 2.92939 0.00330918 -1.59028e-015 -5 -0 1.89154 -2.20396 -0.390442 -1.33201 14.5931 -7.44349 -4.37038 0.476392 -0.223425 -1.59028e-015 -5 -0 -4.04493 -0.840369 -1.03974 -0.103753 11.4517 -3.79874 -7.95139e-016 1.93815e-015 -0 12.342 -10.9182 63.1482 3.65695 -0.0247563 -112.713 9.41255 -8.65764 -8.78454 -7.95139e-016 1.93815e-015 -0 -11.5265 -4.71151 -28.7148 14.1423 -1.82345 65.7694 -0.919286 -0.759706 9.89516 
-212.158 88.4716 -68.8333 -0.0255556 0.474893 85.8589 -3.64247 -1.99486 0.060458 1.50816 11.0818 15.6072 4.51481 2.87341 0.00389622 2.10715e-015 -5 -3.1927e-015 1.85698 -2.24491 -0.411976 -1.30457 14.6312 -7.42637 -4.36221 0.416154 -0.222581 -3.85639e-015 -5 -3.1927e-015 -4.05057 -0.89403 -1.04526 -0.234504 11.6058 -3.79345 2.96559e-032 -2.13694e-015 7.95139e-016 12.3242 -10.8629 63.1444 3.63392 -0.0780578 -112.624 9.40558 -8.703 -8.78034 2.96559e-032 -2.13694e-015 7.95139e-016 -11.5446 -4.71591 -28.8037 14.123 -1.78707 65.8494 -0.849406 -0.78821 9.8949 
-212.146 88.4666 -68.8359 -0.0288585 0.464516 85.7983 -3.63692 -1.97692 0.0691616 1.5079 11.0546 15.6724 4.5199 2.87804 0.00407632 1.47097e-015 -5 3.1927e-015 1.86999 -2.30103 -0.396831 -1.31737 14.7401 -7.42081 -4.43868 0.352937 -0.226463 1.05358e-015 -5 -1.59635e-015 -4.00456 -0.89615 -1.03715 -0.240277 11.84 -3.70237 -7.95139e-016 3.08116e-015 7.95139e-016 12.3912 -10.9254 63.266 3.56905 -0.0228553 -112.119 9.24373 -8.67334 -8.80397 -7.95139e-016 3.08116e-015 7.95139e-016 -11.5703 -4.77321 -28.7627 14.1172 -1.71927 65.8069 -0.826606 -0.873196 9.89492 
-212.134 88.4637 -68.8423 -0.0143187 0.47756 85.7635 -3.66371 -1.92605 0.052495 1.51319 11.0081 15.7376 4.52542 2.88402 0.00425203 -5.36701e-016 -5 -1.59635e-015 1.87234 -2.25119 -0.37693 -1.363 14.6764 -7.40306 -4.44478 0.344129 -0.230347 -3.18055e-015 -5 -0 -4.02097 -0.913053 -1.0278 -0.22059 11.9548 -3.50658 -7.95139e-016 9.93923e-017 -1.59028e-015 12.4136 -10.9587 63.4076 3.66937 -0.111105 -112.35 9.292 -8.69129 -8.79518 -7.95139e-016 9.93923e-017 -1.59028e-015 -11.5178 -4.74014 -28.7287 14.092 -1.7449 65.8074 -0.826248 -0.889702 9.8948 
-212.147 88.4602 -68.8497 -0.0596674 0.50603 85.7117 -3.71519 -1.98475 0.00371498 1.53513 11.027 15.8515 4.54151 2.87913 0.0044237 -1.17288e-015 -5 4.78906e-015 1.81478 -2.37634 -0.418599 -1.3323 14.8027 -7.30706 -4.48332 0.286849 -0.230346 9.3427e-016 -5 1.59635e-015 -3.99636 -0.91678 -0.964401 -0.244148 11.9376 -3.50977 0 1.44119e-015 -0 12.3209 -10.9959 63.3083 3.65037 -0.115118 -112.133 8.52562 -8.37289 -8.90724 0 1.44119e-015 -0 -11.5771 -4.79079 -28.9144 14.0595 -1.64453 65.929 -0.875077 -0.971749 9.89491 
-212.14 88.4569 -68.8499 -0.0593809 0.508669 85.7244 -3.7091 -1.93123 0.0114431 1.52274 10.9391 15.8209 4.56946 2.88439 0.00459177 6.56007e-016 -5 -1.59635e-015 1.823 -2.331 -0.408395 -1.34982 14.732 -7.32017 -4.42367 0.305192 -0.230344 1.05358e-015 -5 -1.59635e-015 -4.01946 -0.933362 -0.968147 -0.188292 11.9725 -3.36729 3.97569e-016 -1.88845e-015 -7.95139e-016 12.3874 -10.9783 63.2705 3.6772 -0.0426802 -112.285 7.0017 -7.51015 -9.1491 3.97569e-016 -1.88845e-015 -7.95139e-016 -11.535 -4.76023 -28.8739 14.0463 -1.65842 65.9572 -0.879349 -0.975611 9.89481 
-212.132 88.4547 -68.8515 -0.0512217 0.520514 85.6917 -3.73494 -1.9208 -0.00485148 1.53204 10.9379 15.8716 4.52757 2.89725 0.00475661 3.97569e-016 -5 -0 1.80391 -2.37062 -0.423863 -1.351 14.8354 -7.28327 -4.57326 0.21413 -0.230338 -6.56007e-016 -5 1.59635e-015 -4.0203 -0.944906 -0.94558 -0.246579 11.9221 -3.24086 -3.97569e-016 -1.09332e-015 -2.38542e-015 12.391 -10.9624 63.3219 3.75914 -0.0589212 -112.86 7.81805 -7.98554 -9.02453 -3.97569e-016 -1.09332e-015 -2.38542e-015 -11.5527 -4.73154 -28.7352 14.0742 -1.73504 65.8319 -0.860151 -1.0107 9.89481 
-212.124 88.4536 -68.8512 -0.0367968 0.523152 85.6555 -3.74822 -1.91328 -0.0150855 1.54188 10.9684 15.9105 4.52171 2.88092 0.00491843 -1.45115e-015 -5 1.59635e-015 1.77911 -2.40712 -0.447003 -1.33379 14.9219 -7.22 -4.4659 0.226331 -0.230329 3.97569e-016 -5 -0 -3.98361 -0.831936 -0.893558 -0.42736 11.9287 -3.29 -7.95139e-016 -1.59028e-015 -7.95139e-016 12.3259 -11.0502 63.3824 3.82932 -0.120011 -112.743 7.64325 -8.10965 -9.03531 -7.95139e-016 -1.59028e-015 -7.95139e-016 -11.6273 -4.7853 -28.6864 14.1336 -1.80123 65.9047 -0.933146 -1.14094 9.89513 
-212.092 88.453 -68.8498 0.0133446 0.499217 85.706 -3.72364 -1.82016 -0.00571573 1.55563 10.918 15.8335 4.41956 2.89822 0.00507787 1.33184e-015 -5 1.59635e-015 1.81783 -2.26493 -0.43153 -1.35 14.8075 -7.28377 -4.35957 0.27498 -0.230315 -1.05358e-015 -5 1.59635e-015 -4.00427 -0.858833 -0.882563 -0.46117 12.324 -3.50526 -3.97569e-016 4.96962e-015 1.59028e-015 12.4171 -11.0805 63.3793 3.89304 -0.00314195 -112.771 7.51548 -8.10518 -9.05269 -3.97569e-016 4.96962e-015 1.59028e-015 -11.5999 -4.67277 -28.6702 14.1596 -1.85583 65.9037 -0.896207 -1.22218 9.89531 
-212.074 88.4523 -68.8538 0.00258042 0.47886 85.7039 -3.70527 -1.86955 0.0149121 1.55236 11.0217 15.8124 4.47135 2.83162 0.00523479 3.06125e-015 -5 3.1927e-015 1.84555 -2.23055 -0.409961 -1.35259 14.757 -7.28943 -4.46556 0.25358 -0.230292 -6.56007e-016 -5 1.59635e-015 -3.9858 -1.00915 -0.926654 -0.441365 12.7905 -3.31309 6.41396e-032 -4.62174e-015 7.95139e-016 12.4069 -10.9011 63.4104 3.86185 -0.10167 -112.8 7.42674 -8.16134 -9.05783 6.41396e-032 -4.62174e-015 7.95139e-016 -11.5582 -4.55397 -28.6056 14.1209 -1.91059 65.8882 -0.855914 -1.17775 9.895 
-212.06 88.4519 -68.8587 0.0386262 0.452837 85.726 -3.681 -1.83455 0.045047 1.54496 11.0521 15.7829 4.53185 2.7783 0.00538996 1.59028e-015 -5 -0 1.85393 -2.15508 -0.427037 -1.33015 14.6913 -7.2974 -4.52887 0.259357 -0.230261 -9.3427e-016 -5 -1.59635e-015 -3.85624 -0.947299 -0.911744 -0.431874 13.3905 -3.0008 3.97569e-016 1.2921e-015 3.18055e-015 12.3033 -11.0068 63.4607 3.95124 -0.0982823 -112.811 7.28321 -8.05588 -9.08148 3.97569e-016 1.2921e-015 3.18055e-015 -11.6836 -4.57517 -28.4631 14.1674 -1.97942 65.6305 -0.840028 -1.07291 9.89447 
-212.066 88.4513 -68.8594 0.0258744 0.449313 85.7069 -3.6783 -1.86074 0.033939 1.5556 11.0754 15.8007 4.45794 2.79061 0.00554403 1.59028e-015 -5 -0 1.86385 -2.20845 -0.412694 -1.33835 14.7513 -7.28018 -4.46905 0.272126 -0.230219 -3.18055e-015 -5 -0 -3.9744 -1.03981 -1.01247 -0.239943 14.269 -2.35591 0 4.87022e-015 -0 12.3922 -10.9195 63.4061 3.92174 -0.0794454 -112.478 7.05956 -7.95569 -9.11407 0 4.87022e-015 -0 -11.5435 -4.63432 -28.5076 14.1513 -1.90692 65.7529 -0.777363 -0.975229 9.89394 
